<svg xmlns="http://www.w3.org/2000/svg" xmlns:xlink="http://www.w3.org/1999/xlink" width="500" zoomAndPan="magnify" viewBox="0 0 375 374.999991" height="500" preserveAspectRatio="xMidYMid meet" version="1.0"><defs><g/></defs><rect x="-37.5" width="450" fill="#ffffff" y="-37.499999" height="449.999989" fill-opacity="1"/><rect x="-37.5" width="450" fill="#ffffff" y="-37.499999" height="449.999989" fill-opacity="1"/><g fill="#000000" fill-opacity="1"><g transform="translate(63.83171, 246.704731)"><g><path d="M 31.90625 -38.5625 C 31.90625 -37.21875 31.789062 -36.050781 31.5625 -35.0625 C 31.789062 -34.125 31.90625 -32.957031 31.90625 -31.5625 C 31.90625 -30.21875 31.789062 -29.046875 31.5625 -28.046875 L 28.046875 -28.046875 C 28.285156 -27.109375 28.40625 -25.941406 28.40625 -24.546875 C 28.40625 -23.203125 28.285156 -22.03125 28.046875 -21.03125 L 10.515625 -21.03125 C 10.753906 -20.101562 10.875 -18.9375 10.875 -17.53125 C 10.875 -16.1875 10.753906 -15.019531 10.515625 -14.03125 C 10.753906 -13.09375 10.875 -11.921875 10.875 -10.515625 C 10.875 -9.171875 10.753906 -8.003906 10.515625 -7.015625 C 10.753906 -6.078125 10.875 -4.90625 10.875 -3.5 C 10.875 -2.15625 10.753906 -0.988281 10.515625 0 L 3.5 0 C 3.269531 -0.988281 3.15625 -2.15625 3.15625 -3.5 C 3.15625 -4.90625 3.269531 -6.078125 3.5 -7.015625 C 3.269531 -8.003906 3.15625 -9.171875 3.15625 -10.515625 C 3.15625 -11.921875 3.269531 -13.09375 3.5 -14.03125 C 3.269531 -15.019531 3.15625 -16.1875 3.15625 -17.53125 C 3.15625 -18.9375 3.269531 -20.101562 3.5 -21.03125 C 3.269531 -22.03125 3.15625 -23.203125 3.15625 -24.546875 C 3.15625 -25.941406 3.269531 -27.109375 3.5 -28.046875 C 3.269531 -29.046875 3.15625 -30.21875 3.15625 -31.5625 C 3.15625 -32.957031 3.269531 -34.125 3.5 -35.0625 C 3.269531 -36.050781 3.15625 -37.21875 3.15625 -38.5625 C 3.15625 -39.96875 3.269531 -41.140625 3.5 -42.078125 C 3.269531 -43.066406 3.15625 -44.234375 3.15625 -45.578125 C 3.15625 -46.984375 3.269531 -48.15625 3.5 -49.09375 L 28.046875 -49.09375 C 28.285156 -48.15625 28.40625 -46.984375 28.40625 -45.578125 C 28.40625 -44.234375 28.285156 -43.066406 28.046875 -42.078125 L 31.5625 -42.078125 C 31.789062 -41.140625 31.90625 -39.96875 31.90625 -38.5625 Z M 24.546875 -28.046875 C 24.304688 -29.046875 24.1875 -30.21875 24.1875 -31.5625 C 24.1875 -32.957031 24.304688 -34.125 24.546875 -35.0625 C 24.304688 -36.050781 24.1875 -37.21875 24.1875 -38.5625 C 24.1875 -39.96875 24.304688 -41.140625 24.546875 -42.078125 L 10.515625 -42.078125 C 10.753906 -41.140625 10.875 -39.96875 10.875 -38.5625 C 10.875 -37.21875 10.753906 -36.050781 10.515625 -35.0625 C 10.753906 -34.125 10.875 -32.957031 10.875 -31.5625 C 10.875 -30.21875 10.753906 -29.046875 10.515625 -28.046875 Z M 24.546875 -28.046875 "/></g></g></g><g fill="#000000" fill-opacity="1"><g transform="translate(98.894685, 246.704731)"><g><path d="M 14.03125 -21.03125 C 14.257812 -20.101562 14.375 -18.9375 14.375 -17.53125 C 14.375 -16.1875 14.257812 -15.019531 14.03125 -14.03125 C 14.257812 -13.09375 14.375 -11.921875 14.375 -10.515625 C 14.375 -9.171875 14.257812 -8.003906 14.03125 -7.015625 L 28.046875 -7.015625 C 28.285156 -6.078125 28.40625 -4.90625 28.40625 -3.5 C 28.40625 -2.15625 28.285156 -0.988281 28.046875 0 L 7.015625 0 C 6.773438 -0.988281 6.65625 -2.15625 6.65625 -3.5 C 6.65625 -4.90625 6.773438 -6.078125 7.015625 -7.015625 C 6.773438 -8.003906 6.65625 -9.171875 6.65625 -10.515625 C 6.65625 -11.921875 6.773438 -13.09375 7.015625 -14.03125 C 6.773438 -15.019531 6.65625 -16.1875 6.65625 -17.53125 C 6.65625 -18.9375 6.773438 -20.101562 7.015625 -21.03125 C 6.773438 -22.03125 6.65625 -23.203125 6.65625 -24.546875 C 6.65625 -25.941406 6.773438 -27.109375 7.015625 -28.046875 C 6.773438 -29.046875 6.65625 -30.21875 6.65625 -31.5625 C 6.65625 -32.957031 6.773438 -34.125 7.015625 -35.0625 C 6.773438 -36.050781 6.65625 -37.21875 6.65625 -38.5625 C 6.65625 -39.96875 6.773438 -41.140625 7.015625 -42.078125 C 6.773438 -43.066406 6.65625 -44.234375 6.65625 -45.578125 C 6.65625 -46.984375 6.773438 -48.15625 7.015625 -49.09375 L 28.046875 -49.09375 C 28.285156 -48.15625 28.40625 -46.984375 28.40625 -45.578125 C 28.40625 -44.234375 28.285156 -43.066406 28.046875 -42.078125 L 14.03125 -42.078125 C 14.257812 -41.140625 14.375 -39.96875 14.375 -38.5625 C 14.375 -37.21875 14.257812 -36.050781 14.03125 -35.0625 C 14.257812 -34.125 14.375 -32.957031 14.375 -31.5625 C 14.375 -30.21875 14.257812 -29.046875 14.03125 -28.046875 L 28.046875 -28.046875 C 28.285156 -27.109375 28.40625 -25.941406 28.40625 -24.546875 C 28.40625 -23.203125 28.285156 -22.03125 28.046875 -21.03125 Z M 14.03125 -21.03125 "/></g></g></g><g fill="#000000" fill-opacity="1"><g transform="translate(133.95766, 246.704731)"><g><path d="M 31.5625 -21.03125 C 31.789062 -20.101562 31.90625 -18.9375 31.90625 -17.53125 C 31.90625 -16.1875 31.789062 -15.019531 31.5625 -14.03125 C 31.789062 -13.09375 31.90625 -11.921875 31.90625 -10.515625 C 31.90625 -9.171875 31.789062 -8.003906 31.5625 -7.015625 L 28.046875 -7.015625 C 28.285156 -6.078125 28.40625 -4.90625 28.40625 -3.5 C 28.40625 -2.15625 28.285156 -0.988281 28.046875 0 L 7.015625 0 C 6.773438 -0.988281 6.65625 -2.15625 6.65625 -3.5 C 6.65625 -4.90625 6.773438 -6.078125 7.015625 -7.015625 L 3.5 -7.015625 C 3.269531 -8.003906 3.15625 -9.171875 3.15625 -10.515625 C 3.15625 -11.921875 3.269531 -13.09375 3.5 -14.03125 L 10.515625 -14.03125 C 10.753906 -13.09375 10.875 -11.921875 10.875 -10.515625 C 10.875 -9.171875 10.753906 -8.003906 10.515625 -7.015625 L 24.546875 -7.015625 C 24.304688 -8.003906 24.1875 -9.171875 24.1875 -10.515625 C 24.1875 -11.921875 24.304688 -13.09375 24.546875 -14.03125 C 24.304688 -15.019531 24.1875 -16.1875 24.1875 -17.53125 C 24.1875 -18.9375 24.304688 -20.101562 24.546875 -21.03125 L 7.015625 -21.03125 C 6.773438 -22.03125 6.65625 -23.203125 6.65625 -24.546875 C 6.65625 -25.941406 6.773438 -27.109375 7.015625 -28.046875 L 3.5 -28.046875 C 3.269531 -29.046875 3.15625 -30.21875 3.15625 -31.5625 C 3.15625 -32.957031 3.269531 -34.125 3.5 -35.0625 C 3.269531 -36.050781 3.15625 -37.21875 3.15625 -38.5625 C 3.15625 -39.96875 3.269531 -41.140625 3.5 -42.078125 L 7.015625 -42.078125 C 6.773438 -43.066406 6.65625 -44.234375 6.65625 -45.578125 C 6.65625 -46.984375 6.773438 -48.15625 7.015625 -49.09375 L 28.046875 -49.09375 C 28.285156 -48.15625 28.40625 -46.984375 28.40625 -45.578125 C 28.40625 -44.234375 28.285156 -43.066406 28.046875 -42.078125 L 31.5625 -42.078125 C 31.789062 -41.140625 31.90625 -39.96875 31.90625 -38.5625 C 31.90625 -37.21875 31.789062 -36.050781 31.5625 -35.0625 L 24.546875 -35.0625 C 24.304688 -36.050781 24.1875 -37.21875 24.1875 -38.5625 C 24.1875 -39.96875 24.304688 -41.140625 24.546875 -42.078125 L 10.515625 -42.078125 C 10.753906 -41.140625 10.875 -39.96875 10.875 -38.5625 C 10.875 -37.21875 10.753906 -36.050781 10.515625 -35.0625 C 10.753906 -34.125 10.875 -32.957031 10.875 -31.5625 C 10.875 -30.21875 10.753906 -29.046875 10.515625 -28.046875 L 28.046875 -28.046875 C 28.285156 -27.109375 28.40625 -25.941406 28.40625 -24.546875 C 28.40625 -23.203125 28.285156 -22.03125 28.046875 -21.03125 Z M 31.5625 -21.03125 "/></g></g></g><g fill="#000000" fill-opacity="1"><g transform="translate(169.020636, 246.704731)"><g><path d="M 31.5625 -21.03125 C 31.789062 -20.101562 31.90625 -18.9375 31.90625 -17.53125 C 31.90625 -16.1875 31.789062 -15.019531 31.5625 -14.03125 C 31.789062 -13.09375 31.90625 -11.921875 31.90625 -10.515625 C 31.90625 -9.171875 31.789062 -8.003906 31.5625 -7.015625 L 28.046875 -7.015625 C 28.285156 -6.078125 28.40625 -4.90625 28.40625 -3.5 C 28.40625 -2.15625 28.285156 -0.988281 28.046875 0 L 7.015625 0 C 6.773438 -0.988281 6.65625 -2.15625 6.65625 -3.5 C 6.65625 -4.90625 6.773438 -6.078125 7.015625 -7.015625 L 3.5 -7.015625 C 3.269531 -8.003906 3.15625 -9.171875 3.15625 -10.515625 C 3.15625 -11.921875 3.269531 -13.09375 3.5 -14.03125 L 10.515625 -14.03125 C 10.753906 -13.09375 10.875 -11.921875 10.875 -10.515625 C 10.875 -9.171875 10.753906 -8.003906 10.515625 -7.015625 L 24.546875 -7.015625 C 24.304688 -8.003906 24.1875 -9.171875 24.1875 -10.515625 C 24.1875 -11.921875 24.304688 -13.09375 24.546875 -14.03125 C 24.304688 -15.019531 24.1875 -16.1875 24.1875 -17.53125 C 24.1875 -18.9375 24.304688 -20.101562 24.546875 -21.03125 L 7.015625 -21.03125 C 6.773438 -22.03125 6.65625 -23.203125 6.65625 -24.546875 C 6.65625 -25.941406 6.773438 -27.109375 7.015625 -28.046875 L 3.5 -28.046875 C 3.269531 -29.046875 3.15625 -30.21875 3.15625 -31.5625 C 3.15625 -32.957031 3.269531 -34.125 3.5 -35.0625 C 3.269531 -36.050781 3.15625 -37.21875 3.15625 -38.5625 C 3.15625 -39.96875 3.269531 -41.140625 3.5 -42.078125 L 7.015625 -42.078125 C 6.773438 -43.066406 6.65625 -44.234375 6.65625 -45.578125 C 6.65625 -46.984375 6.773438 -48.15625 7.015625 -49.09375 L 28.046875 -49.09375 C 28.285156 -48.15625 28.40625 -46.984375 28.40625 -45.578125 C 28.40625 -44.234375 28.285156 -43.066406 28.046875 -42.078125 L 31.5625 -42.078125 C 31.789062 -41.140625 31.90625 -39.96875 31.90625 -38.5625 C 31.90625 -37.21875 31.789062 -36.050781 31.5625 -35.0625 L 24.546875 -35.0625 C 24.304688 -36.050781 24.1875 -37.21875 24.1875 -38.5625 C 24.1875 -39.96875 24.304688 -41.140625 24.546875 -42.078125 L 10.515625 -42.078125 C 10.753906 -41.140625 10.875 -39.96875 10.875 -38.5625 C 10.875 -37.21875 10.753906 -36.050781 10.515625 -35.0625 C 10.753906 -34.125 10.875 -32.957031 10.875 -31.5625 C 10.875 -30.21875 10.753906 -29.046875 10.515625 -28.046875 L 28.046875 -28.046875 C 28.285156 -27.109375 28.40625 -25.941406 28.40625 -24.546875 C 28.40625 -23.203125 28.285156 -22.03125 28.046875 -21.03125 Z M 31.5625 -21.03125 "/></g></g></g><g fill="#000000" fill-opacity="1"><g transform="translate(204.083611, 246.704731)"><g><path d="M 31.5625 -28.046875 C 31.789062 -27.109375 31.90625 -25.941406 31.90625 -24.546875 C 31.90625 -23.203125 31.789062 -22.03125 31.5625 -21.03125 C 31.789062 -20.101562 31.90625 -18.9375 31.90625 -17.53125 C 31.90625 -16.1875 31.789062 -15.019531 31.5625 -14.03125 L 28.921875 -14.03125 C 29.160156 -13.09375 29.28125 -11.921875 29.28125 -10.515625 C 29.28125 -9.171875 29.160156 -8.003906 28.921875 -7.015625 L 24.546875 -7.015625 C 24.773438 -6.078125 24.890625 -4.90625 24.890625 -3.5 C 24.890625 -2.15625 24.773438 -0.988281 24.546875 0 L 10.515625 0 C 10.285156 -0.988281 10.171875 -2.15625 10.171875 -3.5 C 10.171875 -4.90625 10.285156 -6.078125 10.515625 -7.015625 L 6.140625 -7.015625 C 5.898438 -8.003906 5.78125 -9.171875 5.78125 -10.515625 C 5.78125 -11.921875 5.898438 -13.09375 6.140625 -14.03125 L 3.5 -14.03125 C 3.269531 -15.019531 3.15625 -16.1875 3.15625 -17.53125 C 3.15625 -18.9375 3.269531 -20.101562 3.5 -21.03125 C 3.269531 -22.03125 3.15625 -23.203125 3.15625 -24.546875 C 3.15625 -25.941406 3.269531 -27.109375 3.5 -28.046875 C 3.269531 -29.046875 3.15625 -30.21875 3.15625 -31.5625 C 3.15625 -32.957031 3.269531 -34.125 3.5 -35.0625 L 6.140625 -35.0625 C 5.898438 -36.050781 5.78125 -37.21875 5.78125 -38.5625 C 5.78125 -39.96875 5.898438 -41.140625 6.140625 -42.078125 L 10.515625 -42.078125 C 10.285156 -43.066406 10.171875 -44.234375 10.171875 -45.578125 C 10.171875 -46.984375 10.285156 -48.15625 10.515625 -49.09375 L 24.546875 -49.09375 C 24.773438 -48.15625 24.890625 -46.984375 24.890625 -45.578125 C 24.890625 -44.234375 24.773438 -43.066406 24.546875 -42.078125 L 28.921875 -42.078125 C 29.160156 -41.140625 29.28125 -39.96875 29.28125 -38.5625 C 29.28125 -37.21875 29.160156 -36.050781 28.921875 -35.0625 L 31.5625 -35.0625 C 31.789062 -34.125 31.90625 -32.957031 31.90625 -31.5625 C 31.90625 -30.21875 31.789062 -29.046875 31.5625 -28.046875 Z M 24.546875 -14.03125 C 24.304688 -15.019531 24.1875 -16.1875 24.1875 -17.53125 C 24.1875 -18.9375 24.304688 -20.101562 24.546875 -21.03125 C 24.304688 -22.03125 24.1875 -23.203125 24.1875 -24.546875 C 24.1875 -25.941406 24.304688 -27.109375 24.546875 -28.046875 C 24.304688 -29.046875 24.1875 -30.21875 24.1875 -31.5625 C 24.1875 -32.957031 24.304688 -34.125 24.546875 -35.0625 L 21.921875 -35.0625 C 21.679688 -36.050781 21.5625 -37.21875 21.5625 -38.5625 C 21.5625 -39.96875 21.679688 -41.140625 21.921875 -42.078125 L 13.15625 -42.078125 C 13.382812 -41.140625 13.5 -39.96875 13.5 -38.5625 C 13.5 -37.21875 13.382812 -36.050781 13.15625 -35.0625 L 10.515625 -35.0625 C 10.753906 -34.125 10.875 -32.957031 10.875 -31.5625 C 10.875 -30.21875 10.753906 -29.046875 10.515625 -28.046875 C 10.753906 -27.109375 10.875 -25.941406 10.875 -24.546875 C 10.875 -23.203125 10.753906 -22.03125 10.515625 -21.03125 C 10.753906 -20.101562 10.875 -18.9375 10.875 -17.53125 C 10.875 -16.1875 10.753906 -15.019531 10.515625 -14.03125 L 13.15625 -14.03125 C 13.382812 -13.09375 13.5 -11.921875 13.5 -10.515625 C 13.5 -9.171875 13.382812 -8.003906 13.15625 -7.015625 L 21.921875 -7.015625 C 21.679688 -8.003906 21.5625 -9.171875 21.5625 -10.515625 C 21.5625 -11.921875 21.679688 -13.09375 21.921875 -14.03125 Z M 24.546875 -14.03125 "/></g></g></g><g fill="#000000" fill-opacity="1"><g transform="translate(239.146586, 246.704731)"><g><path d="M 31.90625 -10.515625 C 31.90625 -9.171875 31.789062 -8.003906 31.5625 -7.015625 C 31.789062 -6.078125 31.90625 -4.90625 31.90625 -3.5 C 31.90625 -2.15625 31.789062 -0.988281 31.5625 0 L 24.546875 0 C 24.304688 -0.988281 24.1875 -2.15625 24.1875 -3.5 C 24.1875 -4.90625 24.304688 -6.078125 24.546875 -7.015625 C 24.304688 -8.003906 24.1875 -9.171875 24.1875 -10.515625 C 24.1875 -11.921875 24.304688 -13.09375 24.546875 -14.03125 L 10.515625 -14.03125 C 10.753906 -13.09375 10.875 -11.921875 10.875 -10.515625 C 10.875 -9.171875 10.753906 -8.003906 10.515625 -7.015625 C 10.753906 -6.078125 10.875 -4.90625 10.875 -3.5 C 10.875 -2.15625 10.753906 -0.988281 10.515625 0 L 3.5 0 C 3.269531 -0.988281 3.15625 -2.15625 3.15625 -3.5 C 3.15625 -4.90625 3.269531 -6.078125 3.5 -7.015625 C 3.269531 -8.003906 3.15625 -9.171875 3.15625 -10.515625 C 3.15625 -11.921875 3.269531 -13.09375 3.5 -14.03125 L 6.140625 -14.03125 C 5.898438 -15.019531 5.78125 -16.1875 5.78125 -17.53125 C 5.78125 -18.9375 5.898438 -20.101562 6.140625 -21.03125 C 5.898438 -22.03125 5.78125 -23.203125 5.78125 -24.546875 C 5.78125 -25.941406 5.898438 -27.109375 6.140625 -28.046875 L 7.890625 -28.046875 C 7.648438 -29.046875 7.53125 -30.21875 7.53125 -31.5625 C 7.53125 -32.957031 7.648438 -34.125 7.890625 -35.0625 L 10.515625 -35.0625 C 10.285156 -36.050781 10.171875 -37.21875 10.171875 -38.5625 C 10.171875 -39.96875 10.285156 -41.140625 10.515625 -42.078125 L 12.265625 -42.078125 C 12.035156 -43.066406 11.921875 -44.234375 11.921875 -45.578125 C 11.921875 -46.984375 12.035156 -48.15625 12.265625 -49.09375 L 22.796875 -49.09375 C 23.023438 -48.15625 23.140625 -46.984375 23.140625 -45.578125 C 23.140625 -44.234375 23.023438 -43.066406 22.796875 -42.078125 L 24.546875 -42.078125 C 24.773438 -41.140625 24.890625 -39.96875 24.890625 -38.5625 C 24.890625 -37.21875 24.773438 -36.050781 24.546875 -35.0625 L 27.171875 -35.0625 C 27.410156 -34.125 27.53125 -32.957031 27.53125 -31.5625 C 27.53125 -30.21875 27.410156 -29.046875 27.171875 -28.046875 L 28.921875 -28.046875 C 29.160156 -27.109375 29.28125 -25.941406 29.28125 -24.546875 C 29.28125 -23.203125 29.160156 -22.03125 28.921875 -21.03125 C 29.160156 -20.101562 29.28125 -18.9375 29.28125 -17.53125 C 29.28125 -16.1875 29.160156 -15.019531 28.921875 -14.03125 L 31.5625 -14.03125 C 31.789062 -13.09375 31.90625 -11.921875 31.90625 -10.515625 Z M 21.921875 -21.03125 C 21.679688 -22.03125 21.5625 -23.203125 21.5625 -24.546875 C 21.5625 -25.941406 21.679688 -27.109375 21.921875 -28.046875 L 20.15625 -28.046875 C 19.925781 -29.046875 19.8125 -30.21875 19.8125 -31.5625 C 19.8125 -32.957031 19.925781 -34.125 20.15625 -35.0625 L 14.90625 -35.0625 C 15.132812 -34.125 15.25 -32.957031 15.25 -31.5625 C 15.25 -30.21875 15.132812 -29.046875 14.90625 -28.046875 L 13.15625 -28.046875 C 13.382812 -27.109375 13.5 -25.941406 13.5 -24.546875 C 13.5 -23.203125 13.382812 -22.03125 13.15625 -21.03125 Z M 21.921875 -21.03125 "/></g></g></g><g fill="#000000" fill-opacity="1"><g transform="translate(274.209561, 246.704731)"><g><path d="M 31.5625 -7.015625 C 31.789062 -6.078125 31.90625 -4.90625 31.90625 -3.5 C 31.90625 -2.15625 31.789062 -0.988281 31.5625 0 L 7.015625 0 C 6.773438 -0.988281 6.65625 -2.15625 6.65625 -3.5 C 6.65625 -4.90625 6.773438 -6.078125 7.015625 -7.015625 C 6.773438 -8.003906 6.65625 -9.171875 6.65625 -10.515625 C 6.65625 -11.921875 6.773438 -13.09375 7.015625 -14.03125 C 6.773438 -15.019531 6.65625 -16.1875 6.65625 -17.53125 C 6.65625 -18.9375 6.773438 -20.101562 7.015625 -21.03125 C 6.773438 -22.03125 6.65625 -23.203125 6.65625 -24.546875 C 6.65625 -25.941406 6.773438 -27.109375 7.015625 -28.046875 C 6.773438 -29.046875 6.65625 -30.21875 6.65625 -31.5625 C 6.65625 -32.957031 6.773438 -34.125 7.015625 -35.0625 C 6.773438 -36.050781 6.65625 -37.21875 6.65625 -38.5625 C 6.65625 -39.96875 6.773438 -41.140625 7.015625 -42.078125 C 6.773438 -43.066406 6.65625 -44.234375 6.65625 -45.578125 C 6.65625 -46.984375 6.773438 -48.15625 7.015625 -49.09375 L 14.03125 -49.09375 C 14.257812 -48.15625 14.375 -46.984375 14.375 -45.578125 C 14.375 -44.234375 14.257812 -43.066406 14.03125 -42.078125 C 14.257812 -41.140625 14.375 -39.96875 14.375 -38.5625 C 14.375 -37.21875 14.257812 -36.050781 14.03125 -35.0625 C 14.257812 -34.125 14.375 -32.957031 14.375 -31.5625 C 14.375 -30.21875 14.257812 -29.046875 14.03125 -28.046875 C 14.257812 -27.109375 14.375 -25.941406 14.375 -24.546875 C 14.375 -23.203125 14.257812 -22.03125 14.03125 -21.03125 C 14.257812 -20.101562 14.375 -18.9375 14.375 -17.53125 C 14.375 -16.1875 14.257812 -15.019531 14.03125 -14.03125 C 14.257812 -13.09375 14.375 -11.921875 14.375 -10.515625 C 14.375 -9.171875 14.257812 -8.003906 14.03125 -7.015625 Z M 31.5625 -7.015625 "/></g></g></g><path stroke-linecap="butt" transform="matrix(1.119552, 0, 0, 1.119552, -37.347799, 99.012848)" fill="none" stroke-linejoin="miter" d="M 45.728521 72.998338 L 45.728521 55.252679 L 53.931439 55.252679 C 63.980102 55.252679 69.049792 48.051137 69.049792 39.687719 C 69.049792 31.324301 63.980102 24.070423 53.931439 24.070423 L 35.896184 24.070423 L 35.896184 72.998338 Z M 59.001129 39.687719 C 59.001129 43.878151 56.509898 46.742718 52.769563 46.742718 L 45.728521 46.742718 L 45.728521 32.646677 L 52.769563 32.646677 C 56.509898 32.646677 59.001129 35.441462 59.001129 39.687719 Z M 73.009942 48.571016 C 73.009942 63.166001 80.640645 73.877596 93.407331 73.877596 C 106.250778 73.877596 113.881481 63.166001 113.881481 48.571016 C 113.881481 34.045814 106.250778 23.264437 93.407331 23.264437 C 80.640645 23.264437 73.009942 34.045814 73.009942 48.571016 Z M 103.815373 48.571016 C 103.815373 57.883475 100.162265 65.154799 93.407331 65.154799 C 86.729157 65.154799 83.128387 57.883475 83.128387 48.571016 C 83.128387 39.115504 86.729157 31.987234 93.407331 31.987234 C 100.162265 31.987234 103.815373 39.115504 103.815373 48.571016 Z M 154.156381 72.998338 L 145.273084 53.567435 C 149.299527 52.241569 153.779556 47.977866 153.779556 39.544666 C 153.779556 30.518315 147.834097 24.070423 138.894975 24.070423 L 120.625948 24.070423 L 120.625948 72.998338 L 130.458285 72.998338 L 130.458285 55.252679 L 135.726855 55.252679 L 143.211015 72.998338 Z M 143.730894 39.687719 C 143.730894 43.878151 141.243152 46.742718 137.426056 46.742718 L 130.458285 46.742718 L 130.458285 32.646677 L 137.426056 32.646677 C 141.243152 32.646677 143.730894 35.371679 143.730894 39.687719 Z M 179.012864 72.998338 L 179.012864 32.719949 L 189.864024 32.719949 L 189.864024 24.070423 L 158.252607 24.070423 L 158.252607 32.719949 L 169.180527 32.719949 L 169.180527 72.998338 Z M 205.579016 72.998338 L 205.579016 52.384623 L 223.258382 52.384623 L 223.258382 43.878151 L 205.579016 43.878151 L 205.579016 32.646677 L 223.757326 32.646677 L 223.757326 24.070423 L 195.746679 24.070423 L 195.746679 72.998338 Z M 261.394452 9.402167 L 253.550912 9.402167 L 245.703884 19.967219 L 251.562114 19.967219 Z M 228.457169 48.571016 C 228.457169 63.166001 236.087872 73.877596 248.858047 73.877596 C 261.698005 73.877596 269.328708 63.166001 269.328708 48.571016 C 269.328708 34.045814 261.698005 23.264437 248.858047 23.264437 C 236.087872 23.264437 228.457169 34.045814 228.457169 48.571016 Z M 259.2626 48.571016 C 259.2626 57.883475 255.609492 65.154799 248.858047 65.154799 C 242.176385 65.154799 238.575614 57.883475 238.575614 48.571016 C 238.575614 39.115504 242.176385 31.987234 248.858047 31.987234 C 255.609492 31.987234 259.2626 39.115504 259.2626 48.571016 Z M 302.332284 72.998338 L 302.332284 64.348812 L 285.909001 64.348812 L 285.909001 24.070423 L 276.076664 24.070423 L 276.076664 72.998338 Z M 318.479927 72.998338 L 318.479927 24.070423 L 308.647589 24.070423 L 308.647589 72.998338 Z M 325.147633 48.571016 C 325.147633 63.166001 332.774847 73.877596 345.545022 73.877596 C 358.388469 73.877596 366.015683 63.166001 366.015683 48.571016 C 366.015683 34.045814 358.388469 23.264437 345.545022 23.264437 C 332.774847 23.264437 325.147633 34.045814 325.147633 48.571016 Z M 355.953064 48.571016 C 355.953064 57.883475 352.296467 65.154799 345.545022 65.154799 C 338.863359 65.154799 335.266078 57.883475 335.266078 48.571016 C 335.266078 39.115504 338.863359 31.987234 345.545022 31.987234 C 352.296467 31.987234 355.953064 39.115504 355.953064 48.571016 Z M 355.953064 48.571016 " stroke="#000000" stroke-width="1.834205" stroke-opacity="1" stroke-miterlimit="4"/></svg>